<svg xmlns="http://www.w3.org/2000/svg" viewBox="0 0 456 580"><path fill="none" d="M210.4 105.6c.8-4 3.4-9.3 4.8-11.7.3-.6-.3-1.2-.9-.9-17.1 8.7-36.2 24.3-51.7 42.2-.5.6.3 1.5.9 1 13.4-9.7 31.8-18.8 55.8-24.7 26.9-6.6 52.9-3.8 68.7-.2.8.2 1.3-1.2.6-1.6-10.5-5.9-26.5-9.9-37.9-9.9-.6 0-.9-.7-.5-1.1 2-2.7 4.7-5.3 7.1-7.2.6-.4.2-1.3-.5-1.3-16.2 1-34.7 8.8-45.4 16-.4.5-1.1 0-1-.6zM48.1 242.1c7.6-11 19.9-18.9 34-21.7 17.9-48 47.7-92.2 87.2-122.6 29.3-24.4 60.9-42 60.9-42s-17-19.7-22.2-21.2c-31.6-8.5-99.9 38.6-143.6 100.8-17.6 25.2-42.9 69.8-30.8 92.7 1.6 2.9 10 10.2 14.5 14zm60.4 291.7c0 2.8 2.2 4.1 6.4 3.1 4.5-1 8-6.6 8-8.2 0 0-2.3-.2-4.8-.2-5.7 0-9.6 1.5-9.6 5.3zm152.6-369.9c-6.5-.3-13.3-1.3-21.2-1.7-1.5-.1-3.1-.2-4.6-.3-18.1-.9-37.6 14.7-40.8 37-4.5 30.9 17.9 46.9 24.4 56.3.8 1.1 1.8 2.7 1.8 4.2 0 1.8-1.2 3.2-2.3 4.4-18.5 19-24.4 49.2-17.4 74.4.9 3.1 2 6.2 3.3 9 16.4 38.2 67.1 56 116.6 39.8 6.6-2.2 12.9-4.9 18.8-8 11.1-5.4 20.8-12.9 28.8-21.5 13.1-13.7 21-28.7 24-47.1 1.5-9.8-.7-13.7-3.7-15.5-3.2-1.9-6.9-1.3-6.9-1.3s-1.7-11.8-6.6-22.5c-14.4 11.4-33 19.4-47.2 23.5-16.3 4.7-38.4 8.3-63.1 6.8-13.7-1.1-22.7-5.1-26.1 6 31.3 11.4 64.4 6.5 64.4 6.5.6-.1 1.2.4 1.3 1 .1.5-.3 1-.7 1.2 0 0-25.4 11.8-65.8-.7 1.1 9.5 10.3 13.7 14.8 15.4 5.5 2.2 11.6 3.2 11.6 3.2 50 8.6 96.8-20 107.3-27.2.8-.5 1.3 0 .7.9-.6.9-.6 1-1 1.5-12.9 16.6-47.5 35.9-92.6 35.9-19.7 0-39.3-6.9-46.5-17.6-11.2-16.5-.6-40.6 18.1-38.1 0 0 6.4.7 8.2.9 23.3 2.6 57.1-.7 84.9-13.6 25.4-11.8 35.1-24.8 33.6-35.3-.4-2.8-1.7-5.8-4.4-8.6-4.6-4.5-11.8-8-24.1-11.4-4-1.1-6.8-1.9-9.7-2.8-5.3-1.7-7.8-3.1-8.4-13-.3-4.3-1-19.4-1.3-25.6-.5-10.9-1.8-25.8-11-31.9-2.4-1.6-5.1-2.4-7.9-2.5-2.8-.1-4.1.4-4.7.5-5.3.9-8.4 3.7-12.3 6.9-11.7 9.8-21.4 11.4-32.3 10.9zm61.1 67.9c-.1 4.1-2.5 7.3-5.5 7.3-3-.1-5.3-3.4-5.3-7.5.1-4.1 2.5-7.3 5.5-7.3s5.3 3.4 5.3 7.5zm-13.7-48.2c5.8-.9 8.6 5.1 10.6 14.9 1.4 6.7 1.1 12.8-.4 16.3-2.7-.4-5.6-.4-8.6 0-2.3-2.9-4.4-7.7-5.5-13.3-2-9.8-1.8-17 3.9-17.9zm-19.3 53.2c1.3-2.7 5.3-3.4 9-1.6 3.7 1.8 5.6 5.4 4.2 8.1-1.3 2.7-5.3 3.4-9 1.6-3.6-1.9-5.5-5.5-4.2-8.1zm-22.7-3c-.6.9-1.9.8-4.6.5-4.9-.6-9.8-.9-17.3 1.8 0 0-2.7 1.1-3.9 1.1-.3 0-.6-.1-.9-.3-.2-.2-.4-.5-.4-1 0-1.1 1-2.7 2.6-4.1 1.9-1.7 4.9-3.4 10.3-4.3 7.4-.9 12.8 2.6 14.1 4.6.5.8.3 1.4.1 1.7zm1.7-9.2c-1 1.1-3.5-.2-7.7-2s-9.5-3.8-16-3.4c-9.2.6-17.1 4.6-19.4 4.3-1-.1-1.4-.6-1.5-1.1-.4-1.7 2.2-4.5 5-6.5 8.4-6 19.2-7.3 28.3-3.4 4.5 1.9 8.6 5.3 10.7 8.6 1.1 1.6 1.3 2.9.6 3.5zM95.3 234.7c-3.5-.2-6.8.1-9.5.7-22.6 4.5-35.3 23.7-32.8 48.6 2.3 22.6 25.1 41.6 46.2 42.1 2.2.1 4.4-.1 6.5-.5 22.9-3.9 28.8-28.7 25.1-53.1-4.3-27.4-22.9-37.1-35.5-37.8zm22.3 65.2c-.8 2-4.2 4.6-8.9 4.4-4.9-.4-10.3-3.9-11.1-12.8-.4-4.4 1.3-9.7 2.3-12.5 2-5.4.2-11-4.4-14-2.7-1.8-5.9-2.4-9.1-1.7-3.1.7-5.7 2.5-7.4 5.1-1.4 2.2-2.3 4.9-2.7 6.4-.1.4-.2.7-.3.9-1 2.8-2.7 3.6-3.8 3.4-.5-.1-1.3-.4-1.7-1.7-1.3-3.5-.2-13.3 6.3-20.6 4.2-4.6 10.7-6.9 17-6.1 6.6.8 12.1 4.8 15.5 11.2 4.5 8.5.5 17.5-1.9 22.8-.3.6-.5 1.1-.7 1.6-1.5 3.5-1.6 6.6-.2 8.7 1 1.6 2.9 2.5 5.1 2.6 1 0 1.9-.2 2.8-.4 1.2-.3 2.4-.6 3.1.4.2.4.6 1.1.1 2.3zm122.3 8.9zm176.2 204.6c-3.8 0-6.8 5.3-6.8 12.2 0 7.1 3 12.2 7 12.2 4.9 0 6.8-4.2 6.8-12.2-.1-7.7-2.2-12.2-7-12.2z"/><path d="M310.2 214.8c3-.4 5.9-.4 8.6 0 1.5-3.5 1.8-9.7.4-16.3-2.1-9.9-4.9-15.9-10.6-14.9-5.8.9-6 8.1-3.9 18 1.1 5.5 3.2 10.3 5.5 13.2zm-53.2-2.3c-9.1-3.9-20-2.6-28.3 3.4-2.8 2-5.4 4.8-5 6.5.1.6.5 1 1.5 1.1 2.3.3 10.2-3.8 19.4-4.3 6.5-.4 11.8 1.6 16 3.4s6.7 3 7.7 2c.6-.7.4-1.9-.5-3.5-2.1-3.3-6.3-6.7-10.8-8.6zm-4.7 14.9c-5.4.8-8.4 2.6-10.3 4.3-1.6 1.4-2.6 3-2.6 4.1 0 .5.2.8.4 1 .2.2.5.3.9.3 1.2 0 3.9-1.1 3.9-1.1 7.5-2.7 12.4-2.4 17.3-1.8 2.7.3 4 .5 4.6-.5.2-.3.4-.8-.2-1.7-1.2-2-6.6-5.5-14-4.6zm41.1 17.4c3.7 1.8 7.7 1.1 9-1.6 1.3-2.7-.6-6.3-4.2-8.1-3.7-1.8-7.7-1.1-9 1.6-1.3 2.7.6 6.3 4.2 8.1zm23.5-20.5c-3-.1-5.4 3.2-5.5 7.3-.1 4.1 2.3 7.4 5.3 7.5 3 .1 5.4-3.2 5.5-7.3 0-4.1-2.3-7.5-5.3-7.5zm-202.6 73.1c-.8.2-1.8.4-2.8.4-2.2 0-4-1-5.1-2.6-1.4-2.1-1.3-5.2.2-8.7.2-.5.4-1 .7-1.6 2.4-5.3 6.4-14.3 1.9-22.8-3.4-6.4-8.9-10.4-15.5-11.2-6.3-.8-12.9 1.5-17 6.1-6.6 7.2-7.6 17.1-6.3 20.6.5 1.3 1.2 1.6 1.7 1.7 1.1.2 2.8-.7 3.8-3.4.1-.2.2-.5.3-.9.5-1.5 1.3-4.2 2.7-6.4 1.7-2.7 4.3-4.5 7.4-5.1 3.2-.7 6.4-.1 9.1 1.7 4.6 3 6.4 8.7 4.4 14-1 2.8-2.7 8.1-2.3 12.5.7 8.8 6.2 12.4 11.1 12.8 4.8.2 8.1-2.5 8.9-4.4.5-1.2.1-1.9-.2-2.2-.6-1.1-1.8-.8-3-.5z"/><path d="M27.9 242.9l13.7 11.6c-3.5 9.2-4.9 19.7-3.8 31 1.5 14.5 9 28.5 21.1 39.2 11.5 10.2 26.7 16.7 41.4 16.7 24.3 56.1 79.9 90.5 145.1 92.4 69.9 2.1 128.7-30.7 153.3-89.7 1.6-4.1 8.4-22.8 8.4-39.2 0-16.5-9.3-23.4-15.3-23.4-.2-.6-1.4-4.9-3-10.1-1.6-5.2-3.3-8.8-3.3-8.8 6.5-9.7 6.6-18.4 5.7-23.4-.9-6.1-3.5-11.3-8.6-16.7-5.1-5.4-15.6-10.9-30.3-15-1.7-.5-7.2-2-7.7-2.1 0-.3-.4-18.2-.7-25.9-.2-5.6-.7-14.2-3.4-22.8-3.2-11.6-8.8-21.7-15.8-28.2 19.2-20 31.3-41.9 31.2-60.8-.1-36.3-44.6-47.2-99.5-24.5-.1 0-11.5 4.9-11.6 4.9-.1-.1-21-20.6-21.3-20.9C161-27.3-34.6 190.1 27.9 242.9zm77.8 82.8c-2.1.4-4.3.5-6.5.5-21.1-.6-43.9-19.6-46.2-42.2-2.5-24.9 10.2-44.1 32.8-48.7 2.7-.5 6-.9 9.5-.7 12.6.7 31.3 10.4 35.5 37.9 3.7 24.5-2.3 49.3-25.1 53.2zm199.8-179.4c.6-.1 1.9-.6 4.7-.5 2.8.1 5.5.9 7.9 2.5 9.2 6.1 10.6 21 11 31.9.3 6.2 1 21.3 1.3 25.6.6 9.9 3.2 11.3 8.4 13 3 1 5.7 1.7 9.7 2.8 12.2 3.4 19.5 6.9 24.1 11.4 2.7 2.8 4 5.8 4.4 8.6 1.4 10.5-8.2 23.5-33.6 35.3-27.8 12.9-61.6 16.2-84.9 13.6-1.8-.2-8.1-.9-8.2-.9-18.6-2.5-29.3 21.6-18.1 38.1 7.2 10.6 26.9 17.6 46.5 17.6 45.1 0 79.7-19.2 92.6-35.9.4-.5.4-.6 1-1.5.6-1 .1-1.5-.7-.9-10.5 7.2-57.3 35.8-107.3 27.2 0 0-6.1-1-11.6-3.2-4.4-1.7-13.6-6-14.8-15.4 40.4 12.5 65.8.7 65.8.7.5-.2.8-.7.7-1.2-.1-.6-.6-1.1-1.3-1 0 0-33.1 4.9-64.4-6.5 3.4-11.1 12.5-7.1 26.1-6 24.7 1.5 46.8-2.1 63.1-6.8 14.2-4.1 32.8-12.1 47.2-23.5 4.9 10.7 6.6 22.5 6.6 22.5s3.8-.7 6.9 1.3c3 1.8 5.2 5.6 3.7 15.5-3 18.4-10.9 33.3-24 47.1-8 8.6-17.7 16.1-28.8 21.5-5.9 3.1-12.2 5.8-18.8 8-49.6 16.2-100.3-1.6-116.6-39.8-1.3-2.9-2.4-5.9-3.3-9-7-25.2-1.1-55.4 17.4-74.4 1.1-1.2 2.3-2.6 2.3-4.4 0-1.5-1-3.1-1.8-4.2-6.5-9.4-28.9-25.4-24.4-56.3 3.2-22.2 22.7-37.9 40.8-37 1.5.1 3.1.2 4.6.3 7.9.5 14.7 1.5 21.2 1.7 10.8.5 20.6-1.1 32.1-10.7 4.1-3.4 7.2-6.2 12.5-7.1zm-65.6 162.5zm17-218.5c.7 0 1 .9.5 1.3-2.5 1.9-5.2 4.5-7.1 7.2-.3.5 0 1.1.5 1.1 11.4.1 27.5 4.1 37.9 9.9.7.4.2 1.8-.6 1.6-15.8-3.6-41.8-6.4-68.7.2-24.1 5.9-42.4 14.9-55.8 24.7-.7.5-1.5-.4-.9-1 15.5-17.9 34.6-33.5 51.7-42.2.6-.3 1.2.3.9.9-1.4 2.5-4 7.7-4.8 11.7-.1.6.5 1.1 1.1.7 10.6-7.3 29.1-15.1 45.3-16.1zM64.5 135.5C108.1 73.2 176.4 26.1 208.1 34.7c5.1 1.5 22.2 21.2 22.2 21.2s-31.6 17.5-60.9 42c-39.5 30.4-69.3 74.6-87.2 122.6-14 2.7-26.4 10.7-34 21.7-4.5-3.8-12.9-11.1-14.4-13.9-12.2-23.1 13.1-67.7 30.7-92.8zm8.7 363.3c-7.7 0-11.5 6.1-13.3 10-1 2.2-1.2 3.9-2 3.9-1.1 0-.3-1.5-1.2-4.8-1.2-4.4-4.8-9-12.5-9-8.1 0-11.6 6.8-13.2 10.6-1.1 2.6-1.1 3.3-2 3.3-1.3 0-.2-2 .3-4.4 1.1-4.7.3-8.3.3-8.3H16.7v48.2h17.5v-24c0-4.7 2-10.7 5.4-10.7 3.9 0 4.7 3 4.7 8.6v26.1h17.6v-24c0-4.2 1.7-10.7 5.4-10.7 4 0 4.7 4.2 4.7 8.6v26.1h17.3V520c-.1-12.8-4.5-21.2-16.1-21.2zm297 0c-7.7 0-11.5 6.1-13.3 10-1 2.2-1.2 3.9-2 3.9-1.1 0-.4-1.9-1.2-4.8-1.3-4.4-4.5-9-12.5-9-8.1 0-11.6 6.8-13.2 10.6-1.1 2.6-1.1 3.3-2 3.3-1.3 0-.2-2 .3-4.4 1.1-4.7.3-8.3.3-8.3h-12.8v48.2h17.5v-24c0-4.7 2-10.7 5.4-10.7 3.9 0 4.7 3 4.7 8.6v26.1H359v-24c0-4.2 1.7-10.7 5.4-10.7 4 0 4.7 4.2 4.7 8.6v26.1h17.3V520c-.1-12.8-4.6-21.2-16.2-21.2zm-251.1 0c-13.4 0-23 4.9-23 4.9v14.5s10.6-6.1 19.2-6.1c6.9 0 7.7 3.7 7.4 6.8 0 0-2-.5-8-.5-14.3 0-21.5 6.5-21.5 16.9 0 9.9 8.1 14 14.9 14 9.9 0 14.3-6.7 15.7-9.9.9-2.2 1.1-3.7 1.9-3.7 1 0 .6 1.1.6 3.3-.1 3.8.1 6.7.7 9.2h13.2v-23.7c0-14.9-5.2-25.7-21.1-25.7zm-4.3 38.1c-4.2 1-6.4-.3-6.4-3.1 0-3.8 3.9-5.3 9.5-5.3 2.5 0 4.8.2 4.8.2.1 1.6-3.4 7.1-7.9 8.2zm54.2-51.6h17.5v62.8H169zm36.8 38.7c0-4.3 4-8.3 11.4-8.3 8.1 0 14.5 3.9 16 4.8v-16.8s-5.1-4.9-17.7-4.9c-13.3 0-24.3 7.8-24.3 24.5s10 26 24.3 26c11.1 0 17.8-6.1 17.8-6.1v-15.9c-2.1 1.2-7.9 5.2-15.9 5.2-8.5 0-11.6-3.9-11.6-8.5zm62.9-25.2c-10.1 0-14 9.6-14.8 11.3-.8 1.7-1.2 2.6-1.8 2.6-1.1 0-.3-2 .1-3.3.8-2.5 2.5-8.9 2.5-16.8 0-5.4-.7-7.2-.7-7.2h-15.1v62.8h17.5v-24c0-3.9 1.6-10.7 6-10.7 3.7 0 4.8 2.7 4.8 8.2v26.6h17.5v-25.5c0-12.5-2.1-24-16-24zm21.7 1.2v48.2h17.5V500s-2.9 1.7-8.7 1.7-8.8-1.7-8.8-1.7z"/><ellipse cx="299.1" cy="491.8" rx="10.7" ry="7"/><path d="M145.9 500v48.2h17.5V500s-2.9 1.7-8.7 1.7c-5.8 0-8.8-1.7-8.8-1.7z"/><ellipse cx="154.6" cy="491.8" rx="10.7" ry="7"/><path d="M421 498.8c-9 0-13.1 6.7-14.9 10.6-1.2 2.5-1.1 3.3-2 3.3-1.3 0-.2-2 .3-4.4 1.1-4.7.3-8.3.3-8.3h-12.8v61.5h17.5V542c2.1 3.5 5.9 7.3 11.8 7.3 12.7 0 19-10.7 19-25.2.1-16.5-7.6-25.3-19.2-25.3zm-4.8 39c-4 0-7-5.1-7-12.2 0-6.9 3-12.2 6.8-12.2 4.9 0 6.9 4.5 6.9 12.2.1 8-1.8 12.2-6.7 12.2z"/></svg>